<svg width="122" height="97" fill="none" xmlns="http://www.w3.org/2000/svg"><path d="M17.216 92.632l.975-1.746-.975 1.746zM5.248 80.664l1.746-.975-1.746.975zm0-63.488l1.746.975-1.746-.975zM17.216 5.208l-.975-1.746.975 1.746zm35.84 0l.975-1.746-.975 1.746zm11.968 75.456l-1.746-.975 1.746.975zM53.056 92.632l.975 1.746-.975-1.746zm-9.6-14.4l-1.011-1.725 1.011 1.725zm5.888-5.888l-1.725-1.011 1.725 1.011zm0-46.976l-1.725 1.011 1.725-1.011zm-5.888-5.888l-1.011 1.725 1.011-1.725zm-16.64 0l-1.011-1.725 1.011 1.725zm-5.888 52.864l-1.725 1.011 1.725-1.011zm5.888 5.888l1.011-1.725-1.011 1.725zm8.32 16.688c-6.542 0-12.169-1.368-16.945-4.034l-1.95 3.492c5.464 3.05 11.784 4.542 18.895 4.542v-4zm-16.945-4.034c-4.796-2.678-8.519-6.4-11.197-11.197l-3.492 1.95c3.04 5.444 7.295 9.7 12.739 12.74l1.95-3.493zM6.994 79.689C4.327 74.913 2.96 69.286 2.96 62.744h-4c0 7.112 1.491 13.431 4.542 18.895l3.492-1.95zM2.96 62.744V35.096h-4v27.648h4zm0-27.648c0-6.542 1.367-12.169 4.034-16.945l-3.492-1.95C.452 21.665-1.04 27.985-1.04 35.096h4zm4.034-16.945c2.678-4.796 6.4-8.519 11.197-11.197l-1.95-3.492c-5.444 3.04-9.7 7.295-12.74 12.739l3.493 1.95zM18.191 6.954C22.967 4.287 28.594 2.92 35.136 2.92v-4c-7.112 0-13.431 1.491-18.895 4.542l1.95 3.492zM35.136 2.92c6.542 0 12.169 1.367 16.945 4.034l1.95-3.492C48.567.412 42.248-1.08 35.136-1.08v4zm16.945 4.034c4.796 2.678 8.519 6.4 11.197 11.197l3.492-1.95c-3.04-5.444-7.295-9.7-12.739-12.74l-1.95 3.493zm11.197 11.197c2.667 4.776 4.034 10.403 4.034 16.945h4c0-7.111-1.491-13.431-4.542-18.895l-3.492 1.95zm4.034 16.945v27.648h4V35.096h-4zm0 27.648c0 6.542-1.367 12.169-4.034 16.945l3.492 1.95c3.05-5.464 4.542-11.783 4.542-18.895h-4zm-4.034 16.945c-2.678 4.796-6.4 8.519-11.197 11.197l1.95 3.492c5.444-3.04 9.7-7.295 12.74-12.739l-3.493-1.95zM52.08 90.886c-4.776 2.666-10.403 4.034-16.945 4.034v4c7.111 0 13.431-1.491 18.895-4.542l-1.95-3.492zm-16.945-8.478c3.401 0 6.528-.807 9.331-2.45l-2.022-3.451c-2.147 1.258-4.566 1.901-7.309 1.901v4zm9.331-2.45a18.232 18.232 0 006.602-6.603l-3.45-2.022a14.233 14.233 0 01-5.174 5.174l2.022 3.45zm6.602-6.603c1.644-2.803 2.451-5.93 2.451-9.331h-4c0 2.743-.643 5.162-1.901 7.309l3.45 2.022zm2.451-9.331V33.688h-4v30.336h4zm0-30.336c0-3.401-.807-6.528-2.45-9.331l-3.451 2.022c1.258 2.147 1.901 4.566 1.901 7.309h4zm-2.45-9.331a18.232 18.232 0 00-6.603-6.602l-2.022 3.45a14.233 14.233 0 015.174 5.174l3.45-2.022zm-6.603-6.602c-2.803-1.644-5.93-2.451-9.331-2.451v4c2.743 0 5.162.643 7.309 1.901l2.022-3.45zm-9.331-2.451c-3.401 0-6.528.807-9.331 2.45l2.022 3.451c2.147-1.258 4.566-1.901 7.309-1.901v-4zm-9.331 2.45a18.232 18.232 0 00-6.602 6.603l3.45 2.022a14.233 14.233 0 015.174-5.174l-2.022-3.45zm-6.602 6.603c-1.644 2.803-2.451 5.93-2.451 9.331h4c0-2.743.643-5.162 1.901-7.309l-3.45-2.022zm-2.451 9.331v30.336h4V33.688h-4zm0 30.336c0 3.401.807 6.528 2.45 9.331l3.451-2.022c-1.258-2.147-1.901-4.566-1.901-7.309h-4zm2.45 9.331a18.232 18.232 0 006.603 6.602l2.022-3.45a14.233 14.233 0 01-5.174-5.174l-3.45 2.022zm6.603 6.602c2.803 1.644 5.93 2.451 9.331 2.451v-4c-2.743 0-5.162-.643-7.309-1.901l-2.022 3.45zM103.21 95h-2v2h2v-2zm0-73.216h2v-3.577l-3.047 1.873 1.047 1.704zM85.93 32.408h-2v3.577l3.047-1.873-1.047-1.704zm0-19.2l-1.029-1.715-.971.583v1.132h2zM103.21 2.84v-2h-.554l-.475.285 1.029 1.715zm17.792 0h2v-2h-2v2zm0 92.16v2h2v-2h-2zm-15.792 0V21.784h-4V95h4zm-3.047-74.92l-17.28 10.624 2.095 3.408 17.279-10.624-2.094-3.408zM87.93 32.408v-19.2h-4v19.2h4zm-.971-17.485l17.28-10.368-2.058-3.43-17.28 10.368 2.058 3.43zM103.21 4.84h17.792v-4H103.21v4zm15.792-2V95h4V2.84h-4zm2 90.16H103.21v4h17.792v-4z" fill="#000"/></svg>